# xmcd CD database file
#
# Track frame offsets:
#	150
#	15529
#	30740
#	43066
#	57335
#	71962
#	85253
#	98458
#	111889
#	123146
#	133103
#	147269
#	161436
#	173727
#	182877
#	195937
#	209442
#	219381
#
# Disc length: 3082 seconds
#
# Revision: 0
# Processed by: cddbd v1.5.1PL0 Copyright (c) Steve Scherf et al.
# Submitted via: CDex 1.60beta1-cs1
#
DISCID=fb0c0812
DTITLE=Nat King Cole - Blue Lou CD2
DYEAR=1900
DGENRE=Jazz
TTITLE0=Mona Lisa
TTITLE1=Embraceable You
TTITLE2=Wish I Were Somebody Else
TTITLE3=I Don't Know Why
TTITLE4=That Ain't Right
TTITLE5=Hit That Jive Jack
TTITLE6=It Only Happens Once
TTITLE7=Blue Lou
TTITLE8=Scotchin' With The Soda
TTITLE9=French Toast
TTITLE10=Are You Fer It?
TTITLE11=I'd Love To Make Love To You
TTITLE12=Lillian
TTITLE13=Riffin' At The Bar-B-Q
TTITLE14=Jam-Bo
TTITLE15=Could-'ja
TTITLE16=With Plenty Of Money And You
TTITLE17=Who Do You Know In Heaven (That Made You The Angel You Are?)
EXTD=
EXTT0=
EXTT1=
EXTT2=
EXTT3=
EXTT4=
EXTT5=
EXTT6=
EXTT7=
EXTT8=
EXTT9=
EXTT10=
EXTT11=
EXTT12=
EXTT13=
EXTT14=
EXTT15=
EXTT16=
EXTT17=
PLAYORDER=
